<svg width="22" height="23" viewBox="0 0 22 23" fill="none" xmlns="http://www.w3.org/2000/svg">
<path d="M14.9881 5.54394L18.3456 2H2.94609C2.69297 2.00668 2.45234 2.11754 2.27558 2.3089C2.09882 2.50027 1.99992 2.75699 2 3.02426V19.9757C2 20.2474 2.10223 20.5079 2.28421 20.7C2.46619 20.8921 2.713 21 2.97035 21H19.0296C19.287 21 19.5338 20.8921 19.7158 20.7C19.8978 20.5079 20 20.2474 20 19.9757V7.2903L18.3456 9.03666M18.3456 9.03666L15.0367 5.54394L9.24852 11.5871L7.57952 16.8415L12.572 15.0593L18.3456 9.03666Z" stroke="white" stroke-width="2.5" stroke-linecap="round" stroke-linejoin="round"/>
</svg>
